# xmcd
#
# Track frame offsets: 
#        150
#        11565
#        27756
#        47974
#        63627
#        76763
#        90084
#        105836
#        120873
#        143272
#        160657
#        178585
#        197335
#        222560
#
# Disc length: 4736 seconds
#
# Revision: 4
# Processed by: cddbd v1.5.2PL0 Copyright (c) Steve Scherf et al.
# Submitted via: ExactAudioCopy v0.99pb5
#
DISCID=9c127e0e
DTITLE=Diamond Rio - One More Day
DYEAR=2001
DGENRE=Country
TTITLE0=That's Just That
TTITLE1=One More Day
TTITLE2=Sweet Summer
TTITLE3=I'm Already Gone
TTITLE4=I Could Do It With My Eyes Closed
TTITLE5='Til the Heartache's Gone
TTITLE6=Here I Go Fallin'
TTITLE7=I Think I Love You
TTITLE8=Hearts Against the Wind
TTITLE9=You Make Me Feel
TTITLE10=The Love of a Woman
TTITLE11=I'm Trying
TTITLE12=Stuff
TTITLE13=Data Track
EXTD=Mario´s Musik
EXTT0=
EXTT1=
EXTT2=
EXTT3=
EXTT4=
EXTT5=
EXTT6=
EXTT7=
EXTT8=
EXTT9=
EXTT10=
EXTT11=
EXTT12=
EXTT13=
PLAYORDER=
